<?xml version="1.0" encoding="utf-8" ?><svg xmlns="http://www.w3.org/2000/svg" xmlns:xlink="http://www.w3.org/1999/xlink" width="4096" height="4096" viewBox="0 0 4096 4096"><defs><linearGradient id="gradient_0" gradientUnits="userSpaceOnUse" x1="1405.8699" y1="1649.8997" x2="1463.5028" y2="2470.8223"><stop offset="0" stop-color="#619838"/><stop offset="1" stop-color="#0A6545"/></linearGradient></defs><path fill="url(#gradient_0)" d="M1993.87 2442.23C1946.65 2443.9 1890.15 2442.55 1842.28 2442.57L1549.11 2442.72L1370.74 2442.84C1329.85 2442.86 1283.28 2444.32 1243.48 2439.13C1140 2425.29 1046.26 2370.89 982.893 2287.91C918.819 2202.6 891.483 2095.23 906.964 1989.67C922.301 1884.16 976.934 1794.84 1062.43 1731.17C1117.19 1690.91 1181.35 1665.33 1248.79 1656.89C1282.77 1652.6 1332.76 1653.93 1368.21 1653.93L1560.89 1653.99L2190.17 1654.05L2558.09 1654.34L2664.92 1653.96C2684.3 1653.88 2715.71 1653.13 2734.27 1655.87C2868.2 1657.59 3024.83 1773.07 3066.72 1899.99L3038.78 1899.97C2992.63 1803.86 2925.62 1736.87 2823.8 1700.62C2788.36 1688 2751.19 1680.94 2713.6 1679.68C2673.51 1681.84 2621.41 1680.36 2580.49 1680.35L2341.15 1680.28L1606.87 1680.38L1396.53 1680.26C1339.19 1680.2 1270.82 1676.97 1216.01 1688.72C1144.03 1704.15 1072.58 1747.35 1023.36 1801.79C957.862 1875.3 924.397 1971.91 930.389 2070.18C935.806 2167.04 979.639 2257.72 1052.17 2322.14C1101.09 2365.86 1160.83 2395.68 1225.19 2408.47C1273.34 2418.5 1318.24 2416.59 1366.98 2416.61L1504.99 2416.56L1994.09 2416.43C1993.82 2425.07 1993.36 2433.6 1993.87 2442.23Z"/><path fill="#80AA33" d="M2734.27 1655.87C2868.2 1657.59 3024.83 1773.07 3066.72 1899.99L3038.78 1899.97C2992.63 1803.86 2925.62 1736.87 2823.8 1700.62C2788.36 1688 2751.19 1680.94 2713.6 1679.68C2704.98 1677.64 2666.28 1678.49 2654.67 1678.51L2540.77 1678.41C2306.4 1679.36 2072.03 1678.31 1837.67 1675.26C1815.67 1674.9 1720.9 1682.27 1711.61 1662.95L1713.38 1660.74C1742.77 1658.73 1786.52 1660.17 1816.93 1660.1L1969.9 1658.51L2486.05 1657.17L2646.64 1657.03C2669.88 1657 2709.93 1658.12 2732.15 1656.08L2734.27 1655.87Z"/><defs><linearGradient id="gradient_1" gradientUnits="userSpaceOnUse" x1="2328.3379" y1="2638.4392" x2="2723.4243" y2="1996.1841"><stop offset="0" stop-color="#E5E624"/><stop offset="1" stop-color="#BCCD2A"/></linearGradient></defs><path fill="url(#gradient_1)" d="M3040.57 2196.24L3067.53 2196.23C3023.19 2297.14 2951.99 2372.95 2848.27 2413.76C2816.78 2426.23 2783.83 2434.63 2750.22 2438.76C2696.09 2445.19 2582.92 2442.18 2524.29 2442.15L2172.6 2441.96C2115.96 2441.96 2049.82 2440.26 1993.87 2442.23C1993.36 2433.6 1993.82 2425.07 1994.09 2416.43L2484.61 2416.02L2629.86 2416.09C2682.59 2416.12 2731.65 2418.71 2783.51 2406.88C2850.76 2391.66 2912.35 2357.78 2961.21 2309.13C2996.06 2274.39 3017.68 2239.22 3040.57 2196.24Z"/><path fill="white" d="M1502.72 1947.16C1555.32 1938.62 1604.86 1974.39 1613.3 2027C1621.75 2079.61 1585.89 2129.09 1533.26 2137.44C1480.77 2145.76 1431.45 2110.02 1423.03 2057.54C1414.61 2005.07 1450.26 1955.68 1502.72 1947.16ZM1519.01 2120.85C1562.36 2120.45 1597.15 2084.93 1596.66 2041.58C1596.16 1998.23 1560.57 1963.51 1517.22 1964.1C1474 1964.69 1439.41 2000.15 1439.91 2043.37C1440.4 2086.59 1475.79 2121.25 1519.01 2120.85Z"/><path fill="white" d="M1280.96 1947.14C1333.34 1939.02 1382.42 1974.76 1390.77 2027.1C1399.12 2079.43 1363.58 2128.67 1311.27 2137.23C1258.66 2145.85 1209.07 2110.05 1200.68 2057.41C1192.29 2004.76 1228.28 1955.32 1280.96 1947.14ZM1303.07 2120.33C1345.73 2116.32 1377.25 2078.77 1373.81 2036.05C1370.37 1993.34 1333.25 1961.32 1290.5 1964.18C1262.32 1966.07 1237.34 1982.97 1225.12 2008.43C1212.89 2033.88 1215.31 2063.94 1231.45 2087.11C1247.59 2110.28 1274.95 2122.97 1303.07 2120.33Z"/><defs><linearGradient id="gradient_2" gradientUnits="userSpaceOnUse" x1="1973.7146" y1="2106.5759" x2="1891.413" y2="1976.7094"><stop offset="0" stop-color="#749028"/><stop offset="1" stop-color="#00483B"/></linearGradient></defs><path fill="url(#gradient_2)" d="M1837.98 2008.12C1843.43 1994.32 1852.43 1982.2 1864.07 1973C1886.85 1955.09 1912.36 1951.34 1940.23 1954.76C1979.8 1963.43 2025.84 2019.22 2055.66 2049.57C2043.53 2056.51 2024.71 2063.14 2023.53 2077.73C1998.21 2053.22 1970.17 2022.12 1943.64 1999.86C1918.06 1978.38 1871.1 2005.53 1870.94 2041.73C1870.93 2055.44 1876.56 2068.54 1886.51 2077.97C1896.42 2087.42 1909.94 2092.11 1923.57 2090.83C1946.27 2088.86 1958.45 2075.32 1971.93 2059.45L2001.67 2087.25C1970.12 2117.93 1946.96 2142.81 1897.64 2129.12C1874.76 2123.01 1855.31 2107.9 1843.73 2087.24C1829.01 2060.61 1830.12 2036.08 1837.98 2008.12Z"/><path fill="#004C3A" d="M1837.98 2008.12C1843.43 1994.32 1852.43 1982.2 1864.07 1973C1886.85 1955.09 1912.36 1951.34 1940.23 1954.76C1930.78 1964.52 1919.08 1958.44 1907.34 1968.38C1895.87 1978.08 1847.69 2003.49 1841.66 2013.56L1839.28 2012.36L1837.98 2008.12Z"/><path fill="white" d="M2412.12 1950.14C2456.79 1949.63 2542.7 1938.38 2556.39 1995.99C2560.32 2012.97 2557.33 2030.81 2548.08 2045.57C2534.97 2066.11 2518.76 2071.52 2496.74 2075.91C2477.03 2076.82 2452.09 2076.31 2431.98 2076.39C2431.98 2093.49 2432.63 2115.92 2431.46 2132.59L2428.54 2134.71C2422.21 2134.8 2418.65 2135.5 2413.09 2132.51C2410.97 2118.85 2412.02 2084.8 2412.05 2068.88L2412.12 1950.14ZM2431.87 2059.88C2462.91 2060.4 2498.07 2065.22 2523.63 2047.76C2535.5 2034.15 2539.09 2025.67 2537.84 2007.25C2534.43 1957.01 2467.66 1965.85 2432.01 1966.23L2431.87 2059.88Z"/><path fill="white" d="M1660.79 1949.91C1691.25 1949.56 1756.63 1944.51 1778.67 1962.24C1829.75 2003.34 1805.71 2064.09 1745.53 2075.74C1725.84 2076.78 1699.66 2076.16 1679.45 2076.19C1679.42 2087 1681.34 2128.25 1675.83 2133.85C1666.63 2134.18 1670.29 2135.57 1663.67 2131.7C1656.58 2119.34 1660.57 2091.59 1660.54 2076.02C1660.41 2033.99 1660.49 1991.95 1660.79 1949.91ZM1679.76 2059.65C1711.54 2060.07 1744.2 2064.14 1771.59 2047.66C1783.03 2035.18 1787.02 2026.29 1786.23 2009.02C1783.83 1956.75 1716.58 1965.72 1679.94 1966.21L1679.76 2059.65Z"/><path fill="white" d="M2646.6 1949.68C2653.67 1949.37 2659.37 1948.24 2665.44 1951.43C2675.57 1969.58 2747.4 2125.9 2746.06 2133.1C2724.73 2141.72 2713.53 2099.66 2707.1 2084.8L2668.32 2085.36L2603.76 2085.59C2596.62 2100.42 2590.69 2118.73 2581.5 2132C2578.99 2135.62 2567.9 2135.32 2563.99 2134.38L2567.38 2135.43L2563.45 2133.31C2582.28 2082.25 2622.3 2001.75 2646.6 1949.68ZM2610 2069.99L2659 2069.98L2700.36 2070.17C2693.89 2055.43 2662.09 1979.69 2654.79 1973.13C2639.2 2005.19 2625.38 2038.38 2610 2069.99Z"/><defs><linearGradient id="gradient_3" gradientUnits="userSpaceOnUse" x1="2156.574" y1="2115.0908" x2="2096.4087" y2="2020.4918"><stop offset="0" stop-color="#C3BF1B"/><stop offset="1" stop-color="#779227"/></linearGradient></defs><path fill="url(#gradient_3)" d="M2177.93 1977.68C2214.51 2017.26 2216.32 2073.11 2175.22 2110.25C2157.91 2125.95 2134.92 2133.87 2111.62 2132.18C2071.72 2129.42 2049.75 2103.35 2023.53 2077.73C2024.71 2063.14 2043.53 2056.51 2055.66 2049.57C2071.09 2065.87 2087.21 2087.08 2110.26 2091.49C2137.06 2096.62 2162.6 2072.62 2165.93 2046.89C2168.28 2028.7 2160.61 2019.04 2149.85 2005.66C2149.59 2000.78 2149.21 2000.08 2146.65 1995.92C2153.07 1981.89 2163.35 1979.66 2177.93 1977.68Z"/><path fill="white" d="M2967.39 1949.85C2994 1949.82 3068.99 1947.68 3090.84 1951.36C3095.07 1956.54 3094.17 1953.66 3093.71 1960.24C3090.66 1963.1 3088.36 1965.98 3083.49 1966.12C3052.65 1967.02 3016.66 1966.46 2986.11 1966.4L2985.94 2032.54C3014.68 2032.81 3047.14 2030.8 3075.77 2033.31C3081.02 2033.77 3081.27 2036.18 3083.68 2040.2L3081.89 2044.1C3067.73 2052.78 3009.15 2049.47 2989.82 2049.3C2982.41 2052.88 2985.53 2108.25 2985.6 2118.32C3001.43 2118.34 3087.24 2117.44 3095.73 2119.25L3097.62 2122.66C3097.16 2131.5 3098.82 2128.2 3094.65 2134.14C3080.8 2136.88 2987.29 2135.23 2967.46 2135.15L2967.39 1949.85Z"/><path fill="white" d="M2291.43 1948.63C2308.96 1948.09 2347.45 1949.59 2358.46 1964.6C2358.89 1972.31 2359.51 1968.46 2354.81 1976.13C2347.03 1978.44 2321.31 1963.66 2306.04 1964.03C2281.8 1964.61 2252.68 1972.29 2254.42 2003.13C2255.3 2018.75 2279.3 2027.01 2292.5 2030.87C2316.37 2037.95 2339.28 2041.36 2359.2 2057.69C2383.01 2077.22 2365.34 2115.44 2342.79 2127.69C2328.23 2135.6 2313.15 2136.13 2296.6 2136.54C2274.63 2135.8 2250.14 2129.81 2233.43 2114.93C2232.99 2107.4 2232.63 2111.21 2236.65 2103.26C2242.67 2100.73 2286.22 2126.32 2306.01 2120.76C2322.61 2116.11 2328.3 2121.63 2344.05 2104.35C2366.78 2079.43 2340.47 2065.31 2318.61 2057.06C2277.04 2045.81 2211.41 2032.49 2243.16 1972.48C2251.09 1957.49 2274.73 1951.64 2291.43 1948.63Z"/><path fill="white" d="M2845.66 1948.62C2869.94 1947.39 2911.79 1953.81 2927.53 1974.39L2926.83 1979.13C2925.37 1980.28 2916.76 1984.79 2915.73 1984.15C2878.02 1960.77 2833.11 1953.05 2799.51 1992.27C2785.74 2008.44 2779.22 2029.57 2781.48 2050.69C2786.44 2100.48 2829.79 2124 2876.44 2118.09C2895.68 2113.28 2908.11 2100.08 2922.77 2102.2L2924.93 2105.17C2922.11 2121.96 2901.28 2128.77 2886.68 2133C2861.4 2140.32 2830.21 2136.75 2807.5 2123.41C2785.62 2110.36 2770.14 2088.8 2764.77 2063.89C2751.16 2002.62 2787.82 1961.03 2845.66 1948.62Z"/><path fill="white" d="M1062.49 1949.88C1069.79 1949.62 1073.34 1948.9 1080.15 1951.67C1084.57 1968.07 1081.45 2092.35 1081.4 2118.56C1104.65 2118.54 1162.56 2116.69 1182.04 2119.34C1186.49 2125.4 1184.89 2125.83 1185.12 2135.15L1062.24 2135.12L1062.49 1949.88Z"/><defs><linearGradient id="gradient_4" gradientUnits="userSpaceOnUse" x1="2117.7222" y1="2007.688" x2="2088.0464" y2="1960.7855"><stop offset="0" stop-color="#728F28"/><stop offset="1" stop-color="#3F7130"/></linearGradient></defs><path fill="url(#gradient_4)" d="M2032.47 1997.22C2078.81 1953.8 2121.95 1931.96 2177.93 1977.68C2163.35 1979.66 2153.07 1981.89 2146.65 1995.92C2149.21 2000.08 2149.59 2000.78 2149.85 2005.66C2113.98 1979.61 2087.58 1997.9 2064 2027.43C2053.6 2016.58 2043.55 2007.38 2032.47 1997.22Z"/></svg>