<?xml version="1.0" encoding="utf-8" ?><svg xmlns="http://www.w3.org/2000/svg" xmlns:xlink="http://www.w3.org/1999/xlink" width="300" height="123" viewBox="0 0 300 123"><path fill="white" transform="matrix(0.11534 0 0 0.11571 9.53674e-07 -1.90735e-06)" d="M770.273 425.481C825.745 416.594 877.936 454.304 886.917 509.761C895.898 565.218 858.275 617.473 802.833 626.547C747.26 635.642 694.853 597.911 685.851 542.322C676.849 486.733 714.669 434.39 770.273 425.481ZM798.9 607.482C843.872 600.535 874.698 558.446 867.752 513.474C860.807 468.501 818.72 437.674 773.747 444.617C728.772 451.561 697.941 493.651 704.887 538.626C711.833 583.602 753.925 614.43 798.9 607.482Z"/><path fill="white" transform="matrix(0.11534 0 0 0.11571 9.53674e-07 -1.90735e-06)" d="M535.541 425.484C590.989 416.708 643.077 454.473 651.976 509.901C660.876 565.33 623.228 617.502 567.82 626.526C512.235 635.579 459.861 597.785 450.933 542.181C442.005 486.576 479.916 434.287 535.541 425.484ZM552.517 608.479C597.921 607.871 634.285 570.662 633.85 525.256C633.416 479.85 596.347 443.344 550.939 443.605C505.286 443.867 468.538 481.181 468.975 526.834C469.412 572.486 506.867 609.09 552.517 608.479Z"/><defs><linearGradient id="gradient_0" gradientUnits="userSpaceOnUse" x1="1270.005" y1="598.94867" x2="1170.6041" y2="444.11816"><stop offset="0" stop-color="#779227"/><stop offset="1" stop-color="#00423C"/></linearGradient></defs><path fill="url(#gradient_0)" transform="matrix(0.11534 0 0 0.11571 9.53674e-07 -1.90735e-06)" d="M1296.38 573.849C1289.43 580.832 1281.3 586.569 1274.6 593.586C1257.99 610.98 1237.85 620.055 1213.45 620.334C1187.73 620.819 1162.89 611.017 1144.43 593.106C1085.18 534.563 1128.56 429.048 1214.53 433.035C1263.22 435.293 1281.79 464.925 1314.13 497.135C1328.8 511.744 1343.55 526.553 1358.24 541.237L1357.81 541.526C1355.4 543.193 1355.04 544.517 1352.35 545.986C1342.84 551.167 1334.07 557.109 1325.2 563.305C1322.84 563.221 1323.89 562.925 1321.93 564.191C1307.43 555.461 1276.92 516.305 1261.05 504.303C1250 495.942 1235.44 475.448 1219.11 473.874C1171.43 469.278 1141.01 522.435 1170.53 559.023C1179.43 570.095 1192.45 577.077 1206.59 578.372C1238.43 581.292 1246.75 560.93 1267.01 543.837C1273.88 551.968 1288.15 567.482 1296.38 573.849Z"/><path fill="white" transform="matrix(0.11534 0 0 0.11571 9.53674e-07 -1.90735e-06)" d="M1729.16 428.151L1774.77 428.084C1803.2 428.016 1832.84 425.905 1857.61 443.328C1885.9 463.228 1890.22 506.824 1870.25 534.079C1857.83 551.023 1840.39 557.724 1820.18 560.766C1803.49 563.021 1767.74 562.004 1749.67 561.972L1749.67 623.759L1729.14 623.825L1729.16 428.151ZM1749.65 543.944C1778.7 544.073 1826.07 549.311 1848.15 530.224C1865.4 511.4 1868.38 477.565 1848.1 459.935C1825.28 440.096 1778.98 445.674 1749.63 445.871L1749.65 543.944Z"/><path fill="white" transform="matrix(0.11534 0 0 0.11571 9.53674e-07 -1.90735e-06)" d="M935.937 428.08L983.69 428.046C1011.25 427.991 1038.47 426.167 1062.8 442.388C1092.06 461.524 1097.05 505.18 1077.64 532.904C1065.43 550.352 1047.26 557.452 1027.12 560.792C1010.47 563.068 974.271 562.068 956.223 562.048L955.856 623.819L936.028 623.806L935.937 428.08ZM956.231 543.933C984.546 544.055 1032.14 549.007 1053.95 530.811C1072.84 511.511 1074.56 479.791 1055.57 460.892C1034.58 440.011 983.807 445.75 956.334 445.923L956.231 543.933Z"/><path fill="white" transform="matrix(0.11534 0 0 0.11571 9.53674e-07 -1.90735e-06)" d="M1976.12 428.147L1995.93 428.192C2008.46 453.817 2020.7 481.991 2032.58 508.086L2085.42 623.845L2063.98 623.844C2058.02 608.043 2047.82 588.055 2040.97 571.622L1998.91 571.595L1931.12 571.599C1923.39 588.582 1915.3 607.192 1907.06 623.819L1888.12 623.807C1892.12 609.266 1912.94 566.008 1920.05 550.603L1976.12 428.147ZM1937.36 554.995L1986.5 555.023C2001.54 555 2018.1 555.313 2033.01 554.806C2027.43 541.686 1988.95 453.295 1985.31 450.399C1969.14 482.024 1954.52 524.911 1937.36 554.995Z"/><defs><linearGradient id="gradient_1" gradientUnits="userSpaceOnUse" x1="1462.5609" y1="605.89423" x2="1396.8328" y2="500.11392"><stop offset="0" stop-color="#C4C01B"/><stop offset="1" stop-color="#769127"/></linearGradient></defs><path fill="url(#gradient_1)" transform="matrix(0.11534 0 0 0.11571 9.53674e-07 -1.90735e-06)" d="M1437.88 478.424C1438.18 478.103 1438.5 477.789 1438.81 477.48C1444.97 471.515 1469.01 453.791 1477.3 453.945C1479.66 456.226 1482.01 458.511 1484.3 460.862C1520.48 498.032 1520.73 555.594 1484.3 592.671C1466.62 610.409 1442.61 620.387 1417.57 620.405C1387.1 620.531 1364.59 607.806 1343.46 586.616C1338.69 581.826 1325.62 569.176 1321.93 564.191C1323.89 562.925 1322.84 563.221 1325.2 563.305C1334.07 557.109 1342.84 551.167 1352.35 545.986C1355.04 544.517 1355.4 543.193 1357.81 541.526L1358.24 541.237C1367.54 550.68 1382.6 567.747 1394.1 573.249C1456.18 602.967 1504.54 509.343 1437.88 478.424Z"/><path fill="white" transform="matrix(0.11534 0 0 0.11571 9.53674e-07 -1.90735e-06)" d="M2314.42 428.125C2357.56 427.158 2404.69 428.058 2448.14 428.05L2448.09 445.689C2412.66 446.947 2370.45 445.88 2334.46 445.93L2334.48 515.723C2368.1 516.09 2402.33 515.778 2436 515.802L2435.96 533.073L2339.75 533.06C2337.23 532.938 2337.07 532.839 2335.05 534.157C2333.22 539.457 2334.44 596.845 2334.48 606.078L2452 606.211L2451.88 623.731L2314.23 623.796L2314.42 428.125Z"/><path fill="white" transform="matrix(0.11534 0 0 0.11571 9.53674e-07 -1.90735e-06)" d="M1599.88 427.358C1625.81 423.689 1652.88 430.297 1675.29 443.466C1673.33 449.222 1671.24 453.793 1668.76 459.314C1640.98 443.631 1597.84 434.141 1571.05 458.243C1565.27 463.447 1562.79 473.495 1563.01 481.025C1563.88 505.709 1592.15 511.722 1611.16 516.427C1641.5 523.935 1683.41 531.361 1683.92 570.583C1684.08 584.419 1678.57 597.718 1668.67 607.387C1653.08 622.786 1629.58 625.281 1608.93 625.32C1583.95 624.887 1557.01 617.972 1538.68 600.14L1546.05 584.974C1546.47 585.304 1546.89 585.63 1547.32 585.953C1572.28 604.903 1595.65 610.675 1626.63 607.162C1646.23 604.94 1668.22 590.487 1663.29 568.934C1654.4 530.051 1586.68 539.896 1560.44 516.565C1550.75 507.95 1545.27 501.809 1543.63 488.545C1539.09 450.054 1566.69 431.717 1599.88 427.358Z"/><path fill="white" transform="matrix(0.11534 0 0 0.11571 9.53674e-07 -1.90735e-06)" d="M2186.82 427.36C2218.71 422.995 2249.62 432.251 2272.53 454.878C2268.86 458.51 2263.56 462.894 2259.57 466.385C2257.29 464.579 2254.97 462.83 2252.6 461.14C2215.08 434.605 2159.87 439.716 2132.96 478.485C2120.33 497.063 2115.55 519.874 2119.65 541.961C2123.64 562.885 2135.77 581.371 2153.38 593.357C2174.3 607.703 2198.54 609.596 2222.9 604.968C2238.68 600.863 2247.82 595.226 2259.37 584.115C2263.29 588.355 2268.04 592.76 2272.22 596.813C2237.52 632.232 2175.91 634.817 2136.94 605.47C2116.2 589.647 2102.64 566.191 2099.28 540.321C2091.4 481.892 2128.81 434.934 2186.82 427.36Z"/><path fill="white" transform="matrix(0.11534 0 0 0.11571 9.53674e-07 -1.90735e-06)" d="M305.087 428.103L325.242 428.06L325.475 606.052L434.71 606.194L434.808 623.863L305.019 623.851L305.087 428.103Z"/><defs><linearGradient id="gradient_2" gradientUnits="userSpaceOnUse" x1="1417.6023" y1="488.63348" x2="1385.4835" y2="438.22327"><stop offset="0" stop-color="#708E28"/><stop offset="1" stop-color="#3C6F30"/></linearGradient></defs><path fill="url(#gradient_2)" transform="matrix(0.11534 0 0 0.11571 9.53674e-07 -1.90735e-06)" d="M1330.68 479.3C1338.32 471.886 1346.07 463.664 1353.98 456.752C1385.2 429.485 1432.36 423.518 1467.32 447.484C1470.39 449.586 1473.42 451.839 1476.63 453.584L1477.3 453.945C1469.01 453.791 1444.97 471.515 1438.81 477.48C1438.5 477.789 1438.18 478.103 1437.88 478.424C1432.86 475.785 1421.14 473.918 1415.55 474.311C1389.89 476.116 1377.22 492.087 1361.5 509.223C1351.99 500.125 1341.27 486.396 1330.68 479.3Z"/></svg>